HIERARCHY
ROOT Hips
{
	OFFSET 0.00000 0.00000 0.00000
	CHANNELS 6 Xposition Yposition Zposition Zrotation Yrotation Xrotation 
	JOINT LHipJoint
	{
		OFFSET 0 0 0
		CHANNELS 3 Zrotation Yrotation Xrotation
		JOINT LeftUpLeg
		{
			OFFSET 1.53139 -1.83434 0.76626
			CHANNELS 3 Zrotation Yrotation Xrotation
			JOINT LeftLeg
			{
				OFFSET 2.56112 -7.03663 0.00000
				CHANNELS 3 Zrotation Yrotation Xrotation
				JOINT LeftFoot
				{
					OFFSET 2.59983 -7.14299 0.00000
					CHANNELS 3 Zrotation Yrotation Xrotation
					JOINT LeftToeBase
					{
						OFFSET 0.13742 -0.37757 2.00054
						CHANNELS 3 Zrotation Yrotation Xrotation
						End Site
						{
							OFFSET 0.00000 -0.00000 1.02897
						}
					}
				}
			}
		}
	}
	JOINT RHipJoint
	{
		OFFSET 0 0 0
		CHANNELS 3 Zrotation Yrotation Xrotation
		JOINT RightUpLeg
		{
			OFFSET -1.40122 -1.83435 0.76627
			CHANNELS 3 Zrotation Yrotation Xrotation
			JOINT RightLeg
			{
				OFFSET -2.54052 -6.98003 0.00000
				CHANNELS 3 Zrotation Yrotation Xrotation
				JOINT RightFoot
				{
					OFFSET -2.63179 -7.23079 0.00000
					CHANNELS 3 Zrotation Yrotation Xrotation
					JOINT RightToeBase
					{
						OFFSET -0.24131 -0.66299 2.03908
						CHANNELS 3 Zrotation Yrotation Xrotation
						End Site
						{
							OFFSET -0.00000 -0.00000 1.07391
						}
					}
				}
			}
		}
	}
	JOINT LowerBack
	{
		OFFSET 0 0 0
		CHANNELS 3 Zrotation Yrotation Xrotation
		JOINT Spine
		{
			OFFSET 0.01174 2.10302 -0.29778
			CHANNELS 3 Zrotation Yrotation Xrotation
			JOINT Spine1
			{
				OFFSET 0.00772 2.13227 -0.01247
				CHANNELS 3 Zrotation Yrotation Xrotation
				JOINT Neck
				{
					OFFSET 0 0 0
					CHANNELS 3 Zrotation Yrotation Xrotation
					JOINT Neck1
					{
						OFFSET -0.09219 1.60848 0.31481
						CHANNELS 3 Zrotation Yrotation Xrotation
						JOINT Head
						{
							OFFSET 0.13974 1.65456 -0.31134
							CHANNELS 3 Zrotation Yrotation Xrotation
							End Site
							{
								OFFSET 0.04742 1.69515 -0.14578
							}
						}
					}
				}
				JOINT LeftShoulder
				{
					OFFSET 0 0 0
					CHANNELS 3 Zrotation Yrotation Xrotation
					JOINT LeftArm
					{
						OFFSET 3.24909 1.02882 -0.23993
						CHANNELS 3 Zrotation Yrotation Xrotation
						JOINT LeftForeArm
						{
							OFFSET 5.32955 -0.00000 -0.00000
							CHANNELS 3 Zrotation Yrotation Xrotation
							JOINT LeftHand
							{
								OFFSET 3.69232 -0.00000 -0.00000
								CHANNELS 3 Zrotation Yrotation Xrotation
								JOINT LeftFingerBase
								{
									OFFSET 0 0 0
									CHANNELS 3 Zrotation Yrotation Xrotation
									JOINT LeftHandIndex1
									{
										OFFSET 0.53660 -0.00000 -0.00000
										CHANNELS 3 Zrotation Yrotation Xrotation
										End Site
										{
											OFFSET 0.43262 -0.00000 -0.00000
										}
									}
								}
								JOINT LThumb
								{
									OFFSET 0 0 0
									CHANNELS 3 Zrotation Yrotation Xrotation
									End Site
									{
										OFFSET 0.43922 -0.00000 0.43922
									}
								}
							}
						}
					}
				}
				JOINT RightShoulder
				{
					OFFSET 0 0 0
					CHANNELS 3 Zrotation Yrotation Xrotation
					JOINT RightArm
					{
						OFFSET -3.21387 0.93002 -0.34594
						CHANNELS 3 Zrotation Yrotation Xrotation
						JOINT RightForeArm
						{
							OFFSET -5.23431 -0.00000 0.00000
							CHANNELS 3 Zrotation Yrotation Xrotation
							JOINT RightHand
							{
								OFFSET -3.55301 -0.00000 -0.00000
								CHANNELS 3 Zrotation Yrotation Xrotation
								JOINT RightFingerBase
								{
									OFFSET 0 0 0
									CHANNELS 3 Zrotation Yrotation Xrotation
									JOINT RightHandIndex1
									{
										OFFSET -0.77252 -0.00000 -0.00000
										CHANNELS 3 Zrotation Yrotation Xrotation
										End Site
										{
											OFFSET -0.62283 -0.00000 -0.00000
										}
									}
								}
								JOINT RThumb
								{
									OFFSET 0 0 0
									CHANNELS 3 Zrotation Yrotation Xrotation
									End Site
									{
										OFFSET -0.63234 -0.00000 0.63234
									}
								}
							}
						}
					}
				}
			}
		}
	}
}
MOTION
Frames: 15
Frame Time: .0083333
-9.9505 17.5994 -11.9813 0 0 0 0 0 0 -21 0 0 0 0 0 0 0 0 0 0 0 0 0 0 21 0 0 0 0 0 0 0 0 0 0 0 0 0 0 0 0 0 0 0 0 0 0 -16 0 0 21 0 0 11 0 0 0 -8 0 0 0 0 0 0 0 0 0 0 0 0 0 0 0 0 0 0 0 0 8 0 0 0 0 0 0 0 0 0 0 0 0 0 0 0 0 0
-9.9505 17.5994 -11.9813 -28.8054 87.8356 -30.7265 0.0000 0.0000 0.0000 -2.7416 -12.0616 5.1529 1.4096 7.5095 21.2338 0.0155 -1.2414 -2.2472 2.3593 -9.5775 -27.6191 0.0000 0.0000 0.0000 8.8470 4.9618 1.0109 -1.6121 -8.0064 22.7336 -0.5074 2.5841 -12.8171 -0.9853 6.3181 -17.7101 -2.1923 0.6562 12.0607 1.6082 0.7056 0.0778 2.8124 0.4578 -6.7430 -13.8103 -9.2290 -16.2140 9.7599 -11.8968 30.7836 4.2530 -5.2613 14.9083 0.0000 -0.0000 0.0000 -81.3624 5.1536 14.0352 18.8503 -29.2323 -4.9575 -0.0000 -0.0000 3.4051 8.7024 23.2889 3.4631 -7.1250 0.0000 -0.0000 -20.8367 52.2911 -3.8773 0.0000 -0.0000 0.0000 89.7235 -6.1885 3.5727 -17.7197 27.7967 -4.4177 0.0000 0.0000 7.0969 -17.9789 7.5746 -2.4494 7.1250 -0.0000 -0.0000 6.4341 -22.0388 3.5717
-9.9509 17.6583 -11.8223 -34.4620 87.7435 -36.3672 0.0000 0.0000 0.0000 -2.2799 -12.7635 5.1754 1.5080 7.7556 21.9743 0.0084 -0.3075 -1.6537 2.0441 -8.9574 -25.6620 0.0000 0.0000 0.0000 9.8966 4.5842 1.0316 -1.5784 -7.9265 22.4910 -0.5086 1.6649 -12.9996 -0.8834 5.9915 -16.7597 -2.2275 0.6330 12.0109 1.7086 0.6792 0.1368 2.9434 0.4464 -6.6523 -13.6295 -9.2020 -16.1649 9.5952 -11.8604 30.7653 4.1608 -5.2477 14.8531 0.0000 0.0000 0.0000 -81.4425 5.0828 13.7765 18.9095 -29.3061 -4.9865 -0.0000 -0.0000 3.5685 9.5100 23.3128 3.7930 -7.1250 0.0000 -0.0000 -20.0765 52.4514 -3.8067 0.0000 0.0000 0.0000 89.6751 -6.0550 3.9687 -17.7049 27.7776 -4.4108 0.0000 0.0000 7.1126 -17.8981 7.5007 -2.4140 7.1250 -0.0000 -0.0000 6.4943 -22.1197 3.5935
-9.9694 17.6520 -11.6849 -32.4865 87.8311 -34.2766 0.0000 0.0000 0.0000 -2.2923 -13.2523 4.8867 1.5362 7.8247 22.1830 -0.0002 0.8437 -1.1627 2.0805 -9.0317 -25.8945 0.0000 0.0000 0.0000 10.3605 4.1981 0.5218 -1.6262 -8.0397 22.8348 -0.5160 1.1192 -13.2282 -0.7895 5.6720 -15.8357 -2.2285 0.6659 12.0413 1.5323 0.7081 0.0937 2.7520 0.4581 -6.7146 -13.4317 -9.2410 -16.1019 9.5699 -11.9785 30.7782 4.0956 -5.2785 14.8441 -0.0000 0.0000 0.0000 -81.2984 5.0258 13.7264 18.9631 -29.3728 -5.0127 -0.0000 -0.0000 3.6577 9.5312 23.4226 3.8184 -7.1250 0.0000 -0.0000 -20.1136 52.5583 -3.8681 -0.0000 0.0000 0.0000 89.9157 -6.0570 4.1210 -17.7668 27.8576 -4.4397 0.0000 0.0000 7.1210 -17.8497 7.3277 -2.3519 7.1250 -0.0000 -0.0000 6.5326 -22.3021 3.5876
-9.9759 17.6767 -11.5301 -33.0039 87.7226 -34.7175 0.0000 0.0000 0.0000 -2.1655 -13.8462 4.8217 1.6150 8.0133 22.7545 -0.0172 2.3489 -0.4965 1.5946 -7.9650 -22.6079 0.0000 0.0000 0.0000 11.1823 4.2101 0.3743 -1.6340 -8.0580 22.8903 -0.5097 0.3702 -13.3652 -0.6889 5.3063 -14.7844 -2.2354 0.7359 11.9796 1.4510 0.7951 0.1062 2.6545 0.4984 -6.6711 -13.3478 -9.2801 -16.0796 9.6001 -12.0753 30.7750 4.0753 -5.3063 14.8480 -0.0000 -0.0000 0.0000 -81.1795 4.9480 13.7031 18.9992 -29.4177 -5.0305 -0.0000 -0.0000 3.6819 9.6100 23.4118 3.8488 -7.1250 0.0000 -0.0000 -20.0322 52.5617 -3.8532 -0.0000 -0.0000 0.0000 90.0941 -6.0728 4.4259 -17.8369 27.9479 -4.4726 0.0000 0.0000 7.0638 -17.7813 7.2246 -2.3096 7.1250 -0.0000 -0.0000 6.5845 -22.4126 3.5998
-9.9889 17.7156 -11.3988 -29.9417 87.9362 -31.4522 0.0000 0.0000 0.0000 -2.4744 -14.6984 4.7066 1.6854 8.1776 23.2549 -0.0468 4.1155 0.0855 0.7563 -5.5542 -15.4964 0.0000 0.0000 0.0000 11.5651 4.1604 0.0217 -1.6644 -8.1290 23.1067 -0.5131 -0.0807 -13.5644 -0.5696 4.8333 -13.4336 -2.3195 0.7182 11.8802 1.3373 0.7522 0.0734 2.5897 0.4775 -6.6467 -13.3858 -9.2756 -15.9378 9.6436 -12.0802 30.6711 4.0997 -5.3131 14.7764 0.0000 -0.0000 0.0000 -81.2545 4.8496 13.6550 19.0199 -29.4434 -5.0406 -0.0000 -0.0000 3.7635 11.6931 23.2475 4.6701 -7.1250 0.0000 -0.0000 -17.9365 52.7673 -3.5191 0.0000 -0.0000 0.0000 90.0219 -6.0705 4.9184 -17.8735 27.9949 -4.4897 0.0000 0.0000 6.8686 -17.7665 7.2121 -2.3036 7.1250 -0.0000 -0.0000 6.5956 -22.4263 3.6039
-10.0031 17.7500 -11.2647 -31.0929 88.0604 -32.4835 0.0000 0.0000 0.0000 -2.5795 -15.3936 4.3153 1.8057 8.4490 24.0864 -0.0949 5.9716 0.4065 0.1610 -2.5849 -7.1251 0.0000 0.0000 0.0000 12.1992 4.2560 -0.0768 -1.6650 -8.1304 23.1109 -0.5042 -0.8222 -13.7367 -0.6022 4.9673 -13.8154 -2.3270 0.6927 11.8807 1.3193 0.7159 0.0725 2.5812 0.4596 -6.6455 -13.3569 -9.2616 -15.8964 9.6574 -12.0732 30.6139 4.1015 -5.3070 14.7385 -0.0000 -0.0000 0.0000 -81.3742 4.7783 13.6415 19.0905 -29.5310 -5.0754 -0.0000 -0.0000 3.7033 14.8878 23.0830 5.9505 -7.1250 0.0000 -0.0000 -14.7288 53.1737 -3.0132 -0.0000 -0.0000 0.0000 89.8623 -6.1122 5.5855 -17.9271 28.0637 -4.5149 0.0000 0.0000 6.5984 -17.7917 7.4714 -2.3894 7.1250 -0.0000 -0.0000 6.5722 -22.1551 3.6318
-10.0173 17.7711 -11.1340 -30.8477 88.1730 -32.1285 0.0000 0.0000 0.0000 -2.7675 -15.1580 3.4316 1.9406 8.7413 24.9892 -0.1150 7.2820 1.7373 0.2177 -3.0040 -8.2899 0.0000 0.0000 0.0000 12.6492 4.2865 -0.1914 -1.6644 -8.1290 23.1067 -0.5080 -1.0532 -13.8861 -0.5381 4.7001 -13.0551 -2.3738 0.6618 11.8229 1.3159 0.6700 0.1195 2.6122 0.4371 -6.5604 -13.4801 -9.3178 -16.0556 9.6648 -12.1083 30.6697 4.1144 -5.3310 14.8169 -0.0000 -0.0000 0.0000 -81.5377 4.6714 13.6905 19.1821 -29.6443 -5.1206 -0.0000 -0.0000 3.4949 16.6140 23.0082 6.6521 -7.1250 0.0000 -0.0000 -12.9815 53.4123 -2.7218 -0.0000 -0.0000 0.0000 89.5864 -6.1714 6.5466 -18.0499 28.2211 -4.5728 0.0000 0.0000 6.1542 -17.8584 7.5825 -2.4344 7.1250 -0.0000 -0.0000 6.5217 -22.0362 3.6213
-10.0318 17.7872 -11.0110 -26.1053 88.3617 -27.2229 0.0000 0.0000 0.0000 -3.1913 -15.4026 2.8167 2.0732 9.0169 25.8483 -0.2016 9.3031 1.7835 0.0488 -1.4250 -3.9190 0.0000 0.0000 0.0000 12.8185 4.3918 -0.3708 -1.6721 -8.1468 23.1609 -0.5351 -0.8398 -14.1476 -0.3975 4.0482 -11.2123 -2.4424 0.6572 11.7175 1.2299 0.6506 0.1456 2.5636 0.4266 -6.4719 -13.6434 -9.3948 -16.1922 9.6534 -12.1575 30.7485 4.1243 -5.3682 14.9054 0.0000 -0.0000 0.0000 -81.7035 4.4826 13.6125 19.2023 -29.6692 -5.1306 -0.0000 -0.0000 3.7385 16.6497 22.7625 6.6003 -7.1250 0.0000 -0.0000 -12.8383 53.1745 -2.6157 0.0000 -0.0000 0.0000 89.4425 -6.2553 7.1736 -18.2516 28.4782 -4.6686 0.0000 0.0000 5.9162 -17.8127 7.5027 -2.4024 7.1250 -0.0000 -0.0000 6.5564 -22.1215 3.6280
-10.0470 17.8021 -10.8957 -20.2081 88.5593 -21.2178 0.0000 0.0000 0.0000 -3.7227 -15.8648 2.3816 2.2123 9.2950 26.7226 -0.3587 11.5339 0.7536 0.0395 1.2830 3.5278 0.0000 0.0000 0.0000 12.9568 4.4657 -0.4806 -1.6770 -8.1581 23.1954 -0.5512 -0.7803 -14.3286 -0.4138 4.1293 -11.4408 -2.3610 0.6619 11.6520 1.0573 0.6578 0.1849 2.3341 0.4231 -6.3903 -13.6350 -9.4188 -16.1483 9.6815 -12.2043 30.6427 4.1225 -5.3866 14.8560 -0.0000 -0.0000 0.0000 -81.6731 4.3156 13.8210 19.2624 -29.7435 -5.1604 -0.0000 -0.0000 3.8235 17.0132 22.8392 6.7731 -7.1250 0.0000 -0.0000 -12.5094 53.3169 -2.5909 -0.0000 -0.0000 0.0000 89.4542 -6.3142 7.4272 -18.4239 28.6966 -4.7510 0.0000 0.0000 5.8639 -17.6238 7.5122 -2.3783 7.1250 -0.0000 -0.0000 6.6938 -22.1205 3.7053
-10.0651 17.8122 -10.7917 -10.7010 88.7223 -11.5559 0.0000 0.0000 0.0000 -4.3229 -16.0534 1.7764 2.3586 9.5762 27.6150 -0.4803 12.8087 -0.4571 0.2841 3.4278 9.4722 0.0000 0.0000 0.0000 12.9737 4.4129 -0.7087 -1.6814 -8.1684 23.2267 -0.5652 -0.6262 -14.4435 -0.4475 4.2919 -11.8994 -2.1481 0.7178 11.5766 0.7868 0.7439 0.1929 1.9141 0.4533 -6.3376 -13.4975 -9.4935 -16.0063 9.7450 -12.3849 30.4501 4.0870 -5.4460 14.7578 -0.0000 -0.0000 0.0000 -81.4521 4.1826 14.5187 19.3486 -29.8496 -5.2032 -0.0000 -0.0000 3.7085 17.7477 23.1710 7.1778 -7.1250 0.0000 -0.0000 -11.9169 53.7839 -2.6022 -0.0000 -0.0000 0.0000 89.5728 -6.3328 7.4475 -18.5035 28.7970 -4.7893 0.0000 0.0000 5.8793 -17.5786 7.7752 -2.4542 7.1250 -0.0000 -0.0000 6.7218 -21.8492 3.7627
-10.0759 17.8145 -10.6703 -27.2129 88.5491 -28.1594 0.0000 0.0000 0.0000 -4.1059 -15.6851 1.1918 2.5199 9.8741 28.5699 -0.5028 12.6973 -2.0106 0.4997 4.5317 12.5776 0.0000 0.0000 0.0000 13.9354 4.7101 -0.4784 -1.6761 -8.1562 23.1894 -0.5738 -0.8559 -14.6443 -0.4635 4.3671 -12.1117 -1.6465 0.7764 11.6410 0.8563 0.8952 0.3023 1.6778 0.5128 -6.2584 -13.4639 -9.5702 -15.9109 9.8233 -12.5367 30.2637 4.0796 -5.5029 14.6795 -0.0000 -0.0000 0.0000 -81.4039 4.0642 15.1575 19.4692 -29.9976 -5.2634 -0.0000 -0.0000 3.6128 18.4060 23.4844 7.5539 -7.1250 0.0000 -0.0000 -11.3879 54.2225 -2.6069 -0.0000 -0.0000 0.0000 89.4143 -6.4046 7.9291 -18.6329 28.9600 -4.8518 0.0000 0.0000 5.7227 -17.8236 7.8211 -2.5052 7.1250 -0.0000 -0.0000 6.5431 -21.7895 3.6703
-10.0932 17.8215 -10.5740 -26.1648 88.6841 -26.9967 0.0000 0.0000 0.0000 -4.5835 -15.4299 0.2796 2.6958 10.1855 29.5796 -0.4613 11.9764 -3.3340 0.4719 4.4060 12.2218 0.0000 0.0000 0.0000 14.0864 4.5402 -0.6110 -1.6610 -8.1210 23.0822 -0.5971 -0.3830 -14.7436 -0.3661 3.8869 -10.7587 -1.4318 0.7588 11.6486 0.8114 0.8976 0.2972 1.5088 0.5069 -6.2639 -13.5383 -9.5790 -15.8541 9.8525 -12.5362 30.1602 4.1024 -5.5112 14.6291 -0.0000 -0.0000 0.0000 -81.5407 4.0530 15.5966 19.6283 -30.1919 -5.3431 -0.0000 -0.0000 3.6443 19.2693 23.6525 7.9838 -7.1250 0.0000 -0.0000 -10.5814 54.5581 -2.5059 -0.0000 -0.0000 0.0000 88.9805 -6.6872 8.8560 -18.8909 29.2828 -4.9774 0.0000 0.0000 5.2942 -18.1556 7.6941 -2.5139 7.1250 -0.0000 -0.0000 6.3038 -21.9055 3.5177
-10.1052 17.8257 -10.4804 -28.4595 88.7573 -29.2918 0.0000 0.0000 0.0000 -5.0275 -15.1124 -0.4999 2.8802 10.4986 30.6068 -0.3669 10.6873 -4.6935 0.4059 4.0900 11.3300 0.0000 0.0000 0.0000 14.3280 4.3181 -0.6108 -1.6406 -8.0735 22.9376 -0.6212 0.1276 -14.8506 -0.2817 3.4136 -9.4326 -1.1071 0.7666 11.7191 0.7922 0.9502 0.3042 1.2955 0.5230 -6.2923 -13.6502 -9.5950 -15.7139 9.9116 -12.5547 30.1094 4.1451 -5.5284 14.5934 0.0000 0.0000 0.0000 -81.6739 4.0581 16.1150 19.7672 -30.3609 -5.4132 -0.0000 -0.0000 3.5315 19.7746 23.9316 8.2974 -7.1250 0.0000 -0.0000 -10.1830 54.9396 -2.5050 0.0000 0.0000 0.0000 88.6604 -6.9988 9.4048 -19.1492 29.6036 -5.1043 0.0000 0.0000 5.0916 -17.8604 8.0054 -2.5695 7.1250 -0.0000 -0.0000 6.5136 -21.5956 3.6824
-10.1122 17.8270 -10.3859 -28.4699 88.7339 -29.4564 0.0000 0.0000 0.0000 -5.5380 -14.8351 -0.9743 3.0592 10.7903 31.5760 -0.2224 8.7940 -6.2395 0.3782 3.9498 10.9355 0.0000 0.0000 0.0000 14.6352 4.2023 -0.4999 -1.6385 -8.0686 22.9226 -0.6471 0.4094 -15.0654 -0.2538 3.2417 -8.9524 -0.7837 0.8197 11.8589 0.7277 1.0611 0.3752 1.0249 0.5671 -6.2919 -13.6300 -9.6670 -15.6364 9.8736 -12.6605 30.0858 4.1057 -5.5782 14.5773 0.0000 -0.0000 0.0000 -81.7498 4.0071 16.5778 19.8600 -30.4733 -5.4601 -0.0000 -0.0000 3.8141 19.7978 24.0290 8.3392 -7.1250 0.0000 -0.0000 -10.2015 55.0430 -2.5354 0.0000 -0.0000 0.0000 88.5494 -7.2562 9.6154 -19.4119 29.9273 -5.2348 0.0000 0.0000 5.1549 -17.5413 8.2812 -2.6067 7.1250 -0.0000 -0.0000 6.7405 -21.3252 3.8540
